<?xml version="1.0" standalone="no"?>
<!DOCTYPE svg PUBLIC "-//W3C//DTD SVG 20010904//EN"
 "http://www.w3.org/TR/2001/REC-SVG-20010904/DTD/svg10.dtd">
<svg version="1.0" xmlns="http://www.w3.org/2000/svg"
 width="1024.000000pt" height="1024.000000pt" viewBox="0 0 1024.000000 1024.000000"
 preserveAspectRatio="xMidYMid meet">
<metadata>
Created by potrace 1.14, written by Peter Selinger 2001-2017
</metadata>
<g transform="translate(0.000000,1024.000000) scale(0.100000,-0.100000)"
fill="#000000" stroke="none">
<path d="M0 5120 l0 -5120 5120 0 5120 0 0 5120 0 5120 -5120 0 -5120 0 0
-5120z m3948 1852 c277 -61 490 -172 660 -344 244 -246 380 -544 439 -958 15
-109 18 -206 18 -765 0 -667 -3 -734 -46 -945 -29 -145 -86 -312 -149 -437
-202 -398 -518 -629 -965 -708 -213 -38 -520 -29 -740 20 -534 121 -892 517
-1015 1124 -43 213 -45 259 -45 951 0 640 1 670 23 807 117 739 535 1182 1202
1273 36 5 169 7 295 5 184 -3 249 -7 323 -23z m4422 -277 l0 -245 -835 0 -835
0 0 -690 0 -690 743 -2 742 -3 3 -247 2 -248 -745 0 -745 0 0 -860 0 -860
-260 0 -260 0 0 2045 0 2045 1095 0 1095 0 0 -245z"/>
<path d="M3463 6510 c-389 -40 -661 -287 -763 -694 -49 -194 -52 -264 -48
-981 5 -732 5 -737 74 -944 129 -387 394 -593 792 -617 194 -12 350 18 510 96
82 41 117 65 175 123 133 132 214 281 267 492 48 190 52 272 47 985 -4 623 -5
660 -25 754 -61 280 -160 463 -330 608 -161 138 -428 205 -699 178z"/>
</g>
</svg>
